<svg width="50" height="50" viewBox="0 0 50 50" fill="none" xmlns="http://www.w3.org/2000/svg">
<path d="M43.1818 0H6.81818C5.00989 0 3.27566 0.718342 1.997 1.997C0.718342 3.27566 0 5.00989 0 6.81818V43.1818C0 44.9901 0.718342 46.7243 1.997 48.003C3.27566 49.2817 5.00989 50 6.81818 50H43.1818C44.9901 50 46.7243 49.2817 48.003 48.003C49.2817 46.7243 50 44.9901 50 43.1818V6.81818C50 5.00989 49.2817 3.27566 48.003 1.997C46.7243 0.718342 44.9901 0 43.1818 0ZM15.9091 45.4545H6.81818C6.21542 45.4545 5.63734 45.2151 5.21112 44.7889C4.7849 44.3627 4.54545 43.7846 4.54545 43.1818V40.5C5.27426 40.7646 6.04286 40.9029 6.81818 40.9091H15.9091V45.4545ZM15.9091 36.3636H6.81818C6.21542 36.3636 5.63734 36.1242 5.21112 35.698C4.7849 35.2718 4.54545 34.6937 4.54545 34.0909V31.4091C5.27426 31.6737 6.04286 31.812 6.81818 31.8182H15.9091V36.3636ZM15.9091 27.2727H6.81818C6.21542 27.2727 5.63734 27.0333 5.21112 26.6071C4.7849 26.1808 4.54545 25.6028 4.54545 25V6.81818C4.54545 6.21542 4.7849 5.63734 5.21112 5.21112C5.63734 4.7849 6.21542 4.54545 6.81818 4.54545H15.9091V27.2727ZM29.5455 45.4545H20.4545V31.8182H29.5455V45.4545ZM29.5455 27.2727H20.4545V4.54545H29.5455V27.2727ZM45.4545 43.1818C45.4545 43.7846 45.2151 44.3627 44.7889 44.7889C44.3627 45.2151 43.7846 45.4545 43.1818 45.4545H34.0909V40.9091H43.1818C43.9571 40.9029 44.7257 40.7646 45.4545 40.5V43.1818ZM45.4545 34.0909C45.4545 34.6937 45.2151 35.2718 44.7889 35.698C44.3627 36.1242 43.7846 36.3636 43.1818 36.3636H34.0909V31.8182H43.1818C43.9571 31.812 44.7257 31.6737 45.4545 31.4091V34.0909ZM45.4545 25C45.4545 25.6028 45.2151 26.1808 44.7889 26.6071C44.3627 27.0333 43.7846 27.2727 43.1818 27.2727H34.0909V4.54545H43.1818C43.7846 4.54545 44.3627 4.7849 44.7889 5.21112C45.2151 5.63734 45.4545 6.21542 45.4545 6.81818V25ZM38.6364 13.6364C38.1869 13.6364 37.7475 13.7697 37.3737 14.0194C37 14.2691 36.7087 14.6241 36.5366 15.0394C36.3646 15.4546 36.3196 15.9116 36.4073 16.3525C36.495 16.7933 36.7115 17.1983 37.0293 17.5162C37.3471 17.834 37.7521 18.0505 38.193 18.1381C38.6338 18.2258 39.0908 18.1808 39.5061 18.0088C39.9214 17.8368 40.2763 17.5455 40.5261 17.1718C40.7758 16.798 40.9091 16.3586 40.9091 15.9091C40.9091 15.3063 40.6696 14.7282 40.2434 14.302C39.8172 13.8758 39.2391 13.6364 38.6364 13.6364ZM11.3636 18.1818C11.8131 18.1818 12.2525 18.0485 12.6263 17.7988C13 17.5491 13.2913 17.1941 13.4634 16.7788C13.6354 16.3635 13.6804 15.9066 13.5927 15.4657C13.505 15.0248 13.2885 14.6199 12.9707 14.302C12.6529 13.9842 12.2479 13.7677 11.807 13.68C11.3662 13.5923 10.9092 13.6373 10.4939 13.8094C10.0786 13.9814 9.72366 14.2727 9.47393 14.6464C9.2242 15.0202 9.09091 15.4596 9.09091 15.9091C9.09091 16.5119 9.33036 17.0899 9.75658 17.5162C10.1828 17.9424 10.7609 18.1818 11.3636 18.1818Z" fill="#525252"/>
</svg>
