<svg width="48" height="51" viewBox="0 0 48 51" fill="none" xmlns="http://www.w3.org/2000/svg">
<path d="M45.0533 26.0006H40.0539C39.3909 26.0006 38.7551 26.2639 38.2863 26.7327C37.8175 27.2015 37.5542 27.8373 37.5542 28.5003C37.5542 29.1633 37.8175 29.7991 38.2863 30.2679C38.7551 30.7366 39.3909 31 40.0539 31V35.9994H37.0892C37.3862 35.199 37.5426 34.3534 37.5517 33.4997C37.5516 31.849 37.0069 30.2444 36.0019 28.9347C34.997 27.6251 33.588 26.6837 31.9935 26.2564C30.399 25.8292 28.7081 25.94 27.1829 26.5717C25.6578 27.2033 24.3838 28.3206 23.5583 29.7501C23.3916 30.0345 23.2828 30.3491 23.2381 30.6757C23.1934 31.0023 23.2138 31.3346 23.2981 31.6533C23.3824 31.972 23.5288 32.2709 23.7291 32.5328C23.9293 32.7946 24.1794 33.0143 24.4649 33.1792C24.7504 33.344 25.0657 33.4507 25.3926 33.4932C25.7195 33.5357 26.0516 33.5131 26.3697 33.4267C26.6879 33.3404 26.9858 33.1919 27.2463 32.9899C27.5069 32.788 27.7249 32.5364 27.8878 32.2499C28.1072 31.8699 28.4227 31.5543 28.8027 31.3349C29.1827 31.1155 29.6138 31 30.0526 31C30.7155 31 31.3513 31.2634 31.8201 31.7322C32.2889 32.2009 32.5523 32.8367 32.5523 33.4997C32.5523 34.1627 32.2889 34.7985 31.8201 35.2673C31.3513 35.7361 30.7155 35.9994 30.0526 35.9994C29.3896 35.9994 28.7538 36.2628 28.285 36.7316C27.8162 37.2004 27.5528 37.8362 27.5528 38.4991C27.5528 39.1621 27.8162 39.7979 28.285 40.2667C28.7538 40.7355 29.3896 40.9988 30.0526 40.9988C30.7155 40.9988 31.3513 41.2622 31.8201 41.731C32.2889 42.1998 32.5523 42.8356 32.5523 43.4986C32.5523 44.1615 32.2889 44.7973 31.8201 45.2661C31.3513 45.7349 30.7155 45.9983 30.0526 45.9983C29.6138 45.9983 29.1827 45.8827 28.8027 45.6633C28.4227 45.444 28.1072 45.1284 27.8878 44.7484C27.7249 44.4618 27.5069 44.2103 27.2463 44.0083C26.9858 43.8063 26.6879 43.6579 26.3697 43.5715C26.0516 43.4851 25.7195 43.4626 25.3926 43.505C25.0657 43.5475 24.7504 43.6543 24.4649 43.8191C24.1794 43.9839 23.9293 44.2036 23.7291 44.4655C23.5288 44.7274 23.3824 45.0263 23.2981 45.345C23.2138 45.6637 23.1934 45.9959 23.2381 46.3225C23.2828 46.6492 23.3916 46.9637 23.5583 47.2481C24.3838 48.6777 25.6578 49.7949 27.1829 50.4266C28.7081 51.0583 30.399 51.1691 31.9935 50.7418C33.588 50.3146 34.997 49.3731 36.0019 48.0635C37.0069 46.7539 37.5516 45.1493 37.5517 43.4986C37.5426 42.6449 37.3862 41.7992 37.0892 40.9988H40.0514V48.498C40.0514 49.1609 40.3147 49.7967 40.7835 50.2655C41.2523 50.7343 41.8881 50.9977 42.5511 50.9977C43.2141 50.9977 43.8499 50.7343 44.3187 50.2655C44.7874 49.7967 45.0508 49.1609 45.0508 48.498V31C45.7138 31 46.3496 30.7366 46.8184 30.2679C47.2872 29.7991 47.5505 29.1633 47.5505 28.5003C47.5505 27.8373 47.2872 27.2015 46.8184 26.7327C46.3496 26.2639 45.7163 26.0006 45.0533 26.0006ZM15.1318 24.1083C15.2096 24.4288 15.3501 24.7306 15.5451 24.9965C15.7402 25.2625 15.9859 25.4872 16.2681 25.6577C16.5504 25.8282 16.8636 25.9412 17.1897 25.9902C17.5158 26.0392 17.8484 26.0231 18.1683 25.943C18.4882 25.8628 18.789 25.7202 19.0536 25.5233C19.3181 25.3264 19.541 25.079 19.7095 24.7956C19.878 24.5121 19.9888 24.1981 20.0354 23.8717C20.0821 23.5452 20.0636 23.2127 19.9812 22.8934L15.5892 5.32049C15.282 4.08609 14.5706 2.98996 13.5684 2.2066C12.5662 1.42324 11.3307 0.997681 10.0586 0.997681C8.78657 0.997681 7.55108 1.42324 6.54884 2.2066C5.54661 2.98996 4.83525 4.08609 4.52802 5.32049L0.133529 22.8934C0.0511105 23.2127 0.0326858 23.5452 0.0793163 23.8717C0.125947 24.1981 0.236711 24.5121 0.405227 24.7956C0.573743 25.079 0.796681 25.3264 1.0612 25.5233C1.32571 25.7202 1.62658 25.8628 1.94646 25.943C2.26635 26.0231 2.59893 26.0392 2.92504 25.9902C3.25115 25.9412 3.56436 25.8282 3.84661 25.6577C4.12886 25.4872 4.37457 25.2625 4.5696 24.9965C4.76463 24.7306 4.90512 24.4288 4.98297 24.1083L6.3803 18.5015H13.7294L15.1318 24.1083ZM7.63266 13.502L9.37495 6.53535C9.4275 6.39689 9.52092 6.27769 9.64281 6.19358C9.76469 6.10947 9.90928 6.06443 10.0574 6.06443C10.2055 6.06443 10.3501 6.10947 10.4719 6.19358C10.5938 6.27769 10.6872 6.39689 10.7398 6.53535L12.4821 13.502H7.63266ZM27.5553 13.502H30.0551C30.7178 13.5027 31.3532 13.7663 31.8219 14.2349C32.2905 14.7036 32.5541 15.339 32.5548 16.0017V18.5015C32.5548 19.1644 32.8181 19.8002 33.2869 20.269C33.7557 20.7378 34.3915 21.0012 35.0545 21.0012C35.7174 21.0012 36.3532 20.7378 36.822 20.269C37.2908 19.8002 37.5542 19.1644 37.5542 18.5015V16.0017C37.5522 14.0135 36.7615 12.1072 35.3555 10.7013C33.9496 9.29533 32.0433 8.5046 30.0551 8.50262H27.5553C26.8924 8.50262 26.2566 8.76598 25.7878 9.23477C25.319 9.70355 25.0556 10.3394 25.0556 11.0023C25.0556 11.6653 25.319 12.3011 25.7878 12.7699C26.2566 13.2387 26.8924 13.502 27.5553 13.502ZM17.5565 35.9994H15.0568C14.394 35.9988 13.7586 35.7352 13.29 35.2665C12.8213 34.7979 12.5577 34.1625 12.5571 33.4997V31C12.5571 30.337 12.2937 29.7012 11.8249 29.2324C11.3561 28.7637 10.7203 28.5003 10.0574 28.5003C9.39441 28.5003 8.7586 28.7637 8.28981 29.2324C7.82103 29.7012 7.55767 30.337 7.55767 31V33.4997C7.55965 35.488 8.35037 37.3943 9.7563 38.8002C11.1622 40.2061 13.0685 40.9969 15.0568 40.9988H17.5565C18.2195 40.9988 18.8553 40.7355 19.3241 40.2667C19.7928 39.7979 20.0562 39.1621 20.0562 38.4991C20.0562 37.8362 19.7928 37.2004 19.3241 36.7316C18.8553 36.2628 18.2195 35.9994 17.5565 35.9994Z" fill="#525252"/>
</svg>
