<svg width="40" height="51" viewBox="0 0 40 51" fill="none" xmlns="http://www.w3.org/2000/svg">
<path d="M32.4815 10.0669C30.7486 10.0681 29.0697 10.6696 27.7304 11.769C26.391 12.8685 25.474 14.3981 25.1353 16.0975C24.7966 17.7969 25.0572 19.5612 25.8726 21.0901C26.6881 22.6191 28.0081 23.8183 29.6081 24.4837C29.2277 25.3955 28.5856 26.1741 27.7629 26.7211C26.9401 27.2681 25.9737 27.559 24.9857 27.5569H14.9915C13.2301 27.5643 11.5034 28.0478 9.99431 28.9561V14.6143C11.6614 14.0249 13.0664 12.8652 13.9611 11.34C14.8558 9.81484 15.1825 8.02249 14.8835 6.27975C14.5845 4.53701 13.679 2.95608 12.3271 1.81637C10.9752 0.676667 9.26394 0.0515747 7.49573 0.0515747C5.72753 0.0515747 4.01624 0.676667 2.66434 1.81637C1.31244 2.95608 0.406972 4.53701 0.107965 6.27975C-0.191043 8.02249 0.135666 9.81484 1.03035 11.34C1.92503 12.8652 3.33008 14.0249 4.99716 14.6143V35.5024C3.35057 36.0946 1.96304 37.2441 1.07503 38.7519C0.187013 40.2596 -0.145518 42.0306 0.135061 43.7578C0.41564 45.485 1.29165 47.0596 2.61127 48.2087C3.93089 49.3578 5.61096 50.0091 7.36032 50.0496C9.10969 50.0901 10.8181 49.5172 12.1895 48.4304C13.5609 47.3436 14.5088 45.8112 14.869 44.0988C15.2292 42.3865 14.9789 40.602 14.1617 39.0548C13.3444 37.5076 12.0115 36.295 10.3941 35.6273C10.7728 34.7194 11.4111 33.9435 12.2289 33.3968C13.0467 32.8501 14.0077 32.5569 14.9915 32.5541H24.9857C27.2715 32.5536 29.4881 31.7696 31.2658 30.3329C33.0436 28.8961 34.2751 26.8934 34.7552 24.6586C36.4256 24.091 37.8424 22.9523 38.756 21.443C39.6697 19.9337 40.0216 18.1505 39.75 16.4073C39.4784 14.6641 38.6005 13.0725 37.271 11.9127C35.9415 10.753 34.2454 10.0994 32.4815 10.0669ZM7.49573 5.06978C7.9899 5.06978 8.47298 5.21631 8.88387 5.49086C9.29475 5.76541 9.615 6.15563 9.80411 6.61219C9.99322 7.06874 10.0427 7.57112 9.9463 8.0558C9.84989 8.54047 9.61192 8.98567 9.26249 9.33511C8.91306 9.68454 8.46786 9.9225 7.98318 10.0189C7.4985 10.1153 6.99613 10.0658 6.53957 9.87673C6.08302 9.68762 5.69279 9.36737 5.41825 8.95648C5.1437 8.54559 4.99716 8.06252 4.99716 7.56835C4.99716 6.90569 5.2604 6.27016 5.72898 5.80159C6.19755 5.33302 6.83307 5.06978 7.49573 5.06978ZM7.49573 45.0469C7.00156 45.0469 6.51849 44.9004 6.1076 44.6259C5.69671 44.3513 5.37646 43.9611 5.18735 43.5045C4.99824 43.048 4.94876 42.5456 5.04517 42.0609C5.14158 41.5762 5.37954 41.131 5.72898 40.7816C6.07841 40.4322 6.52361 40.1942 7.00829 40.0978C7.49296 40.0014 7.99534 40.0509 8.4519 40.24C8.90845 40.4291 9.29867 40.7493 9.57322 41.1602C9.84777 41.5711 9.99431 42.0542 9.99431 42.5484C9.99431 43.211 9.73106 43.8465 9.26249 44.3151C8.79392 44.7837 8.1584 45.0469 7.49573 45.0469ZM32.4815 20.0612C31.9873 20.0612 31.5042 19.9147 31.0933 19.6401C30.6824 19.3656 30.3622 18.9754 30.1731 18.5188C29.984 18.0622 29.9345 17.5599 30.0309 17.0752C30.1273 16.5905 30.3653 16.1453 30.7147 15.7959C31.0641 15.4464 31.5093 15.2085 31.994 15.1121C32.4787 15.0157 32.9811 15.0651 33.4376 15.2543C33.8942 15.4434 34.2844 15.7636 34.5589 16.1745C34.8335 16.5854 34.98 17.0685 34.98 17.5626C34.98 18.2253 34.7168 18.8608 34.2482 19.3294C33.7796 19.798 33.1441 20.0612 32.4815 20.0612Z" fill="#525252"/>
</svg>
