<svg width="51" height="50" viewBox="0 0 51 50" fill="none" xmlns="http://www.w3.org/2000/svg">
<path d="M14.25 35C15.2446 35 16.1984 34.6049 16.9017 33.9017C17.6049 33.1984 18 32.2446 18 31.25C18.0122 31.1253 18.0122 30.9997 18 30.875L24.975 23.9H26.125L30.15 27.925V28.125C30.15 29.1196 30.5451 30.0734 31.2484 30.7767C31.9516 31.4799 32.9054 31.875 33.9 31.875C34.8946 31.875 35.8484 31.4799 36.5517 30.7767C37.2549 30.0734 37.65 29.1196 37.65 28.125V27.925L46.75 18.75C47.4917 18.75 48.2167 18.5301 48.8334 18.118C49.4501 17.706 49.9307 17.1203 50.2145 16.4351C50.4984 15.7498 50.5726 14.9958 50.4279 14.2684C50.2833 13.541 49.9261 12.8728 49.4016 12.3483C48.8772 11.8239 48.209 11.4667 47.4816 11.3221C46.7542 11.1774 46.0002 11.2516 45.3149 11.5355C44.6297 11.8193 44.044 12.2999 43.632 12.9166C43.2199 13.5333 43 14.2583 43 15C42.9878 15.1247 42.9878 15.2503 43 15.375L33.975 24.4H33.575L29.25 20C29.25 19.0054 28.8549 18.0516 28.1517 17.3483C27.4484 16.6451 26.4946 16.25 25.5 16.25C24.5054 16.25 23.5516 16.6451 22.8483 17.3483C22.1451 18.0516 21.75 19.0054 21.75 20L14.25 27.5C13.2554 27.5 12.3016 27.8951 11.5983 28.5983C10.8951 29.3016 10.5 30.2554 10.5 31.25C10.5 32.2446 10.8951 33.1984 11.5983 33.9017C12.3016 34.6049 13.2554 35 14.25 35ZM48 45H5.5V2.5C5.5 1.83696 5.23661 1.20107 4.76777 0.732233C4.29893 0.263392 3.66304 0 3 0C2.33696 0 1.70107 0.263392 1.23223 0.732233C0.763392 1.20107 0.5 1.83696 0.5 2.5V47.5C0.5 48.163 0.763392 48.7989 1.23223 49.2678C1.70107 49.7366 2.33696 50 3 50H48C48.663 50 49.2989 49.7366 49.7678 49.2678C50.2366 48.7989 50.5 48.163 50.5 47.5C50.5 46.837 50.2366 46.2011 49.7678 45.7322C49.2989 45.2634 48.663 45 48 45Z" fill="#525252"/>
</svg>
