<svg width="51" height="30" viewBox="0 0 51 30" fill="none" xmlns="http://www.w3.org/2000/svg">
<path d="M10.2792 0.724852C10.0415 0.497297 9.76116 0.318921 9.45435 0.199959C8.84582 -0.050035 8.16327 -0.050035 7.55474 0.199959C7.24792 0.318921 6.96762 0.497297 6.72991 0.724852L1.73093 5.72383C1.26027 6.19449 0.99585 6.83285 0.99585 7.49847C0.99585 8.16408 1.26027 8.80244 1.73093 9.2731C2.20159 9.74377 2.83995 10.0082 3.50557 10.0082C4.17118 10.0082 4.80954 9.74377 5.2802 9.2731L6.00505 8.52326V27.4944C6.00505 28.1573 6.26839 28.793 6.73714 29.2618C7.20588 29.7305 7.84164 29.9939 8.50454 29.9939C9.16745 29.9939 9.8032 29.7305 10.2719 29.2618C10.7407 28.793 11.004 28.1573 11.004 27.4944V8.52326L11.7289 9.2731C11.9612 9.50738 12.2377 9.69332 12.5423 9.82022C12.8469 9.94711 13.1736 10.0124 13.5035 10.0124C13.8335 10.0124 14.1602 9.94711 14.4648 9.82022C14.7694 9.69332 15.0458 9.50738 15.2782 9.2731C15.5124 9.04074 15.6984 8.7643 15.8253 8.45971C15.9522 8.15513 16.0175 7.82843 16.0175 7.49847C16.0175 7.1685 15.9522 6.84181 15.8253 6.53722C15.6984 6.23263 15.5124 5.95619 15.2782 5.72383L10.2792 0.724852ZM23.5015 4.99898H48.4964C49.1593 4.99898 49.795 4.73564 50.2638 4.26689C50.7325 3.79815 50.9958 3.16239 50.9958 2.49949C50.9958 1.83658 50.7325 1.20083 50.2638 0.732084C49.795 0.263339 49.1593 0 48.4964 0H23.5015C22.8386 0 22.2028 0.263339 21.7341 0.732084C21.2653 1.20083 21.002 1.83658 21.002 2.49949C21.002 3.16239 21.2653 3.79815 21.7341 4.26689C22.2028 4.73564 22.8386 4.99898 23.5015 4.99898ZM48.4964 24.9949H23.5015C22.8386 24.9949 22.2028 25.2582 21.7341 25.727C21.2653 26.1957 21.002 26.8315 21.002 27.4944C21.002 28.1573 21.2653 28.793 21.7341 29.2618C22.2028 29.7305 22.8386 29.9939 23.5015 29.9939H48.4964C49.1593 29.9939 49.795 29.7305 50.2638 29.2618C50.7325 28.793 50.9958 28.1573 50.9958 27.4944C50.9958 26.8315 50.7325 26.1957 50.2638 25.727C49.795 25.2582 49.1593 24.9949 48.4964 24.9949ZM48.4964 12.4974H23.5015C22.8386 12.4974 22.2028 12.7608 21.7341 13.2295C21.2653 13.6983 21.002 14.334 21.002 14.9969C21.002 15.6598 21.2653 16.2956 21.7341 16.7643C22.2028 17.2331 22.8386 17.4964 23.5015 17.4964H48.4964C49.1593 17.4964 49.795 17.2331 50.2638 16.7643C50.7325 16.2956 50.9958 15.6598 50.9958 14.9969C50.9958 14.334 50.7325 13.6983 50.2638 13.2295C49.795 12.7608 49.1593 12.4974 48.4964 12.4974Z" fill="#525252"/>
</svg>
