<svg width="50" height="43" viewBox="0 0 50 43" fill="none" xmlns="http://www.w3.org/2000/svg">
<path d="M49.9847 2.97198C49.9846 2.57094 49.8784 2.17707 49.6768 1.83037C49.4752 1.48368 49.1855 1.19651 48.837 0.998037C48.4885 0.799566 48.0937 0.696865 47.6927 0.700367C47.2917 0.70387 46.8988 0.81345 46.5538 1.01798C45.2233 1.81051 43.7908 2.41747 42.2959 2.82202C40.1623 0.991336 37.4412 -0.0103477 34.6299 8.06116e-05C31.546 0.00377623 28.5843 1.20572 26.3701 3.35214C24.1558 5.49856 22.8624 8.42145 22.7627 11.5037C16.6822 10.5342 11.1712 7.36058 7.28072 2.58799C7.0463 2.30391 6.74707 2.08031 6.40821 1.93599C6.06936 1.79167 5.70079 1.73086 5.33353 1.75868C4.96636 1.78907 4.61211 1.90838 4.30136 2.10631C3.99061 2.30423 3.73272 2.57483 3.54994 2.89472C2.61276 4.5304 2.07454 6.36404 1.979 8.24676C1.88347 10.1295 2.2333 12.0082 3.0001 13.7303L2.99555 13.7326C2.65016 13.9448 2.36512 14.2423 2.16777 14.5964C1.97042 14.9505 1.8674 15.3494 1.8686 15.7548C1.86495 16.0883 1.88545 16.4216 1.92994 16.7522C2.16198 19.6106 3.42869 22.2862 5.49258 24.2774C5.35253 24.5444 5.26713 24.8366 5.24138 25.137C5.21563 25.4374 5.25005 25.7399 5.34262 26.0269C6.24232 28.831 8.15606 31.1985 10.7093 32.6659C8.11496 33.6689 5.31376 34.0185 2.5525 33.6838C2.04167 33.6203 1.5244 33.7321 1.08543 34.001C0.646447 34.2698 0.311774 34.6798 0.136217 35.1637C-0.0393398 35.6476 -0.0453734 36.1767 0.119104 36.6645C0.283582 37.1523 0.608821 37.5698 1.04156 37.8486C5.7907 40.9069 11.3202 42.5326 16.9689 42.5313C23.3745 42.6035 29.6243 40.5567 34.7463 36.7093C39.8683 32.862 43.5752 27.4298 45.2905 21.2578C46.0925 18.5693 46.5019 15.7792 46.5061 12.9737L46.5038 12.5193C47.6902 11.2397 48.6092 9.73605 49.2069 8.09662C49.8046 6.45719 50.0691 4.71493 49.9847 2.97198ZM42.4731 10.2699C42.0974 10.7135 41.907 11.2847 41.9415 11.8649C41.9642 12.2398 41.9619 12.617 41.9619 12.9737C41.9571 15.3439 41.6097 17.701 40.9304 19.9718C39.53 25.224 36.4075 29.8543 32.0631 33.1211C27.7186 36.3879 22.4034 38.1022 16.9689 37.9894C15.0175 37.9897 13.0728 37.7602 11.1751 37.3055C13.5956 36.5249 15.8587 35.3218 17.8596 33.752C18.2285 33.4619 18.4986 33.0647 18.6327 32.6149C18.7668 32.1651 18.7583 31.6849 18.6083 31.2401C18.4584 30.7954 18.1745 30.4079 17.7955 30.1311C17.4165 29.8543 16.9611 29.7016 16.4918 29.694C14.603 29.6645 12.7995 28.9028 11.4614 27.5696C11.8007 27.506 12.1377 27.4265 12.4724 27.3311C12.9633 27.1915 13.3928 26.8908 13.692 26.4774C13.9911 26.064 14.1423 25.5619 14.1213 25.0521C14.1003 24.5422 13.9083 24.0543 13.5762 23.6669C13.2442 23.2795 12.7913 23.0151 12.2907 22.9164C11.1944 22.6998 10.1628 22.2334 9.27614 21.5532C8.38948 20.873 7.67166 19.9975 7.17847 18.9948C7.58916 19.0509 8.00248 19.0858 8.41676 19.0993C8.90908 19.1074 9.39119 18.9585 9.79318 18.6741C10.1952 18.3898 10.4962 17.9848 10.6525 17.5179C10.8026 17.047 10.795 16.5401 10.631 16.0739C10.467 15.6077 10.1555 15.2077 9.74366 14.9345C8.7438 14.269 7.92464 13.3657 7.35959 12.3058C6.79453 11.2459 6.50122 10.0624 6.50593 8.86123C6.50593 8.71128 6.51048 8.55905 6.51957 8.41136C11.6124 13.1615 18.2184 15.9616 25.1734 16.3182C25.5246 16.3316 25.8742 16.2649 26.1958 16.1231C26.5174 15.9814 26.8026 15.7684 27.0297 15.5003C27.2547 15.2305 27.4141 14.9122 27.4953 14.5704C27.5765 14.2285 27.5774 13.8726 27.4978 13.5304C27.3677 12.9878 27.3014 12.432 27.3001 11.874C27.3025 9.93079 28.0755 8.06783 29.4496 6.69376C30.8237 5.31968 32.6866 4.54667 34.6299 4.54426C35.6299 4.54131 36.6197 4.74573 37.5368 5.14462C38.4538 5.54351 39.2782 6.12821 39.9579 6.8618C40.22 7.14381 40.5499 7.35408 40.9161 7.47259C41.2824 7.59111 41.6729 7.61393 42.0505 7.53888C42.9839 7.35745 43.9039 7.11302 44.8043 6.80726C44.1904 8.06333 43.4059 9.22857 42.4731 10.2699Z" fill="#525252"/>
</svg>
