<svg width="51" height="51" viewBox="0 0 51 51" fill="none" xmlns="http://www.w3.org/2000/svg">
<path d="M21.7528 22.8762C22.0468 22.6788 22.2954 22.4212 22.4824 22.1204C22.6693 21.8197 22.7902 21.4827 22.837 21.1317C22.8839 20.7807 22.8556 20.4237 22.7541 20.0845C22.6526 19.7453 22.4802 19.4314 22.2483 19.1639C22.0164 18.8963 21.7303 18.681 21.4089 18.5323C21.0875 18.3836 20.7382 18.3049 20.3841 18.3014C20.0301 18.2979 19.6793 18.3697 19.355 18.512C19.0308 18.6542 18.7404 18.8638 18.5032 19.1267C17.5945 19.9281 16.5051 20.4974 15.3282 20.7858C14.1514 21.0742 12.9222 21.0732 11.7459 20.7827C10.5695 20.4923 9.48107 19.9212 8.57369 19.1182C7.66631 18.3152 6.96701 17.3043 6.53567 16.172C6.10432 15.0397 5.95377 13.8198 6.0969 12.6166C6.24003 11.4134 6.67258 10.2629 7.35752 9.26337C8.04246 8.26388 8.9594 7.44525 10.0298 6.87755C11.1003 6.30985 12.2923 6.00999 13.504 6.00363C14.5565 6.00576 15.5968 6.22943 16.5571 6.6601C17.5175 7.09076 18.3765 7.71876 19.0782 8.50327H16.0036C15.3407 8.50327 14.7049 8.76662 14.2361 9.23539C13.7673 9.70417 13.504 10.34 13.504 11.0029C13.504 11.6658 13.7673 12.3016 14.2361 12.7704C14.7049 13.2392 15.3407 13.5025 16.0036 13.5025H23.5025C24.1655 13.5025 24.8013 13.2392 25.27 12.7704C25.7388 12.3016 26.0022 11.6658 26.0022 11.0029V3.504C26.0022 2.84105 25.7388 2.20526 25.27 1.73649C24.8013 1.26771 24.1655 1.00436 23.5025 1.00436C22.8396 1.00436 22.2038 1.26771 21.735 1.73649C21.2662 2.20526 21.0029 2.84105 21.0029 3.504C19.1137 2.08425 16.8607 1.2292 14.5053 1.03804C12.1499 0.846869 9.78849 1.32742 7.6951 2.42394C5.60171 3.52046 3.86209 5.18802 2.67804 7.23317C1.494 9.27833 0.91404 11.6173 1.00545 13.9787C1.09686 16.3401 1.85589 18.6272 3.19449 20.5747C4.53309 22.5222 6.39641 24.0503 8.5683 24.9817C10.7402 25.9131 13.1316 26.2097 15.4653 25.837C17.7989 25.4644 19.979 24.4377 21.7528 22.8762ZM43.4996 11.0029H33.5011C32.8381 11.0029 32.2023 11.2663 31.7336 11.735C31.2648 12.2038 31.0014 12.8396 31.0014 13.5025C31.0014 14.1655 31.2648 14.8013 31.7336 15.27C32.2023 15.7388 32.8381 16.0022 33.5011 16.0022H43.4996C44.1625 16.0022 44.7983 16.2655 45.2671 16.7343C45.7359 17.2031 45.9992 17.8389 45.9992 18.5018V42.7983L42.0748 39.1738C41.6138 38.7422 41.0066 38.5011 40.3751 38.4989H18.5032C17.8403 38.4989 17.2045 38.2355 16.7357 37.7668C16.267 37.298 16.0036 36.6622 16.0036 35.9993V33.4996C16.0036 32.8367 15.7403 32.2009 15.2715 31.7321C14.8027 31.2633 14.1669 31 13.504 31C12.841 31 12.2052 31.2633 11.7365 31.7321C11.2677 32.2009 11.0043 32.8367 11.0043 33.4996V35.9993C11.0043 37.9881 11.7944 39.8955 13.2007 41.3018C14.607 42.7081 16.5144 43.4982 18.5032 43.4982H39.4002L46.8991 50.3222C47.3346 50.7311 47.9021 50.9705 48.4989 50.9971C48.8417 50.9933 49.1808 50.9255 49.4987 50.7971C49.9459 50.602 50.3261 50.2802 50.5926 49.8716C50.8591 49.463 51.0002 48.9853 50.9985 48.4974V18.5018C50.9985 16.513 50.2084 14.6056 48.8021 13.1993C47.3958 11.793 45.4884 11.0029 43.4996 11.0029Z" fill="#525252"/>
</svg>
